<svg width="128" height="35" viewBox="0 0 128 35" fill="none" xmlns="http://www.w3.org/2000/svg">
<rect width="127.043" height="35" rx="5" fill="#C6F1D6"/>
<path d="M23.52 17.853H34.427V19.244H23.52V17.853ZM28.07 18.75H29.786V23.17H28.07V18.75ZM28.941 11.522C31.515 11.522 33.296 12.588 33.296 14.239C33.296 15.877 31.515 16.93 28.941 16.93C26.38 16.93 24.599 15.877 24.599 14.239C24.599 12.588 26.38 11.522 28.941 11.522ZM28.941 12.9C27.368 12.9 26.367 13.368 26.367 14.239C26.367 15.097 27.368 15.565 28.941 15.565C30.527 15.565 31.515 15.097 31.515 14.239C31.515 13.368 30.527 12.9 28.941 12.9ZM43.825 11.119H45.554V19.985H43.825V11.119ZM35.778 11.977H42.135V13.355H35.778V11.977ZM35.648 18.555L35.479 17.138C37.416 17.138 40.12 17.112 42.291 16.865L42.382 18.126C40.146 18.503 37.559 18.555 35.648 18.555ZM36.727 13.186H38.391V17.307H36.727V13.186ZM39.522 13.186H41.173V17.307H39.522V13.186ZM42.369 13.225H44.761V14.603H42.369V13.225ZM42.369 15.643H44.761V17.034H42.369V15.643ZM37.598 21.571H45.827V22.949H37.598V21.571ZM37.598 19.335H39.34V22.611H37.598V19.335ZM53.132 14.317H56.226V15.695H53.132V14.317ZM55.784 11.132H57.513V20.011H55.784V11.132ZM49.544 21.571H57.773V22.949H49.544V21.571ZM49.544 19.14H51.286V22.364H49.544V19.14ZM47.945 11.912H49.661V13.745H51.949V11.912H53.639V18.126H47.945V11.912ZM49.661 15.058V16.761H51.949V15.058H49.661ZM59.865 12.614H69.797V13.992H59.865V12.614ZM59.41 20.557H70.304V21.948H59.41V20.557ZM63.973 18.971H65.689V21.103H63.973V18.971ZM64.818 14.512C67.327 14.512 68.9 15.383 68.9 16.865C68.9 18.347 67.327 19.218 64.818 19.218C62.309 19.218 60.736 18.347 60.736 16.865C60.736 15.383 62.309 14.512 64.818 14.512ZM64.818 15.851C63.31 15.851 62.504 16.176 62.504 16.865C62.504 17.554 63.31 17.866 64.818 17.866C66.326 17.866 67.132 17.554 67.132 16.865C67.132 16.176 66.326 15.851 64.818 15.851ZM63.973 11.249H65.689V13.472H63.973V11.249ZM77.0687 13.121H78.4597V13.563C78.4597 15.604 77.3677 17.398 75.0667 18.022L74.2737 16.67C76.2237 16.15 77.0687 14.863 77.0687 13.563V13.121ZM77.3937 13.121H78.7977V13.563C78.7977 14.759 79.6297 15.981 81.5667 16.475L80.7997 17.801C78.4727 17.216 77.3937 15.5 77.3937 13.563V13.121ZM74.7027 12.276H81.1637V13.628H74.7027V12.276ZM77.0687 11.08H78.7977V12.9H77.0687V11.08ZM82.1127 11.119H83.8417V17.97H82.1127V11.119ZM83.3607 13.81H85.4407V15.227H83.3607V13.81ZM79.0447 19.062H80.5007V19.348C80.5007 21.22 78.9407 22.741 76.0417 23.118L75.4177 21.805C77.9267 21.506 79.0447 20.388 79.0447 19.348V19.062ZM79.4217 19.062H80.8907V19.348C80.8907 20.349 82.0347 21.506 84.5047 21.831L83.8937 23.144C80.9817 22.767 79.4217 21.168 79.4217 19.348V19.062ZM75.9247 18.49H83.9977V19.855H75.9247V18.49ZM94.6177 11.119H96.3597V23.157H94.6177V11.119ZM91.0687 12.367H92.7847C92.7847 16.046 91.5367 19.062 87.2597 21.129L86.3627 19.751C89.8207 18.087 91.0687 15.903 91.0687 12.679V12.367ZM86.9997 12.367H91.8877V13.732H86.9997V12.367Z" fill="#23C961"/>
</svg>
