<svg width="85" height="35" viewBox="0 0 85 35" fill="none" xmlns="http://www.w3.org/2000/svg">
<rect width="85" height="35" rx="5" fill="#E8E8E8"/>
<path d="M26.788 11.132H28.53V19.777H26.788V11.132ZM20.509 21.571H28.829V22.949H20.509V21.571ZM20.509 18.906H22.238V22.13H20.509V18.906ZM21.978 11.886C23.824 11.886 25.241 13.16 25.241 14.941C25.241 16.709 23.824 17.996 21.978 17.996C20.132 17.996 18.702 16.709 18.702 14.941C18.702 13.16 20.132 11.886 21.978 11.886ZM21.978 13.381C21.081 13.381 20.392 13.953 20.392 14.941C20.392 15.916 21.081 16.488 21.978 16.488C22.862 16.488 23.551 15.916 23.551 14.941C23.551 13.953 22.862 13.381 21.978 13.381ZM30.479 16.67H41.36V18.035H30.479V16.67ZM35.9 18.698C38.5 18.698 40.073 19.517 40.073 20.934C40.073 22.351 38.5 23.157 35.9 23.157C33.3 23.157 31.714 22.351 31.714 20.934C31.714 19.517 33.3 18.698 35.9 18.698ZM35.9 20.037C34.288 20.037 33.469 20.31 33.469 20.934C33.469 21.545 34.288 21.831 35.9 21.831C37.512 21.831 38.331 21.545 38.331 20.934C38.331 20.31 37.512 20.037 35.9 20.037ZM34.73 12.354H36.264V12.653C36.264 14.447 34.639 15.942 31.532 16.215L30.934 14.876C33.573 14.642 34.73 13.589 34.73 12.653V12.354ZM35.575 12.354H37.109V12.653C37.109 13.589 38.253 14.642 40.905 14.876L40.307 16.215C37.213 15.942 35.575 14.46 35.575 12.653V12.354ZM31.467 11.678H40.385V13.043H31.467V11.678ZM45.168 16.618H46.897V18.347H45.168V16.618ZM50.264 11.132H51.993V19.322H50.264V11.132ZM51.382 14.564H53.501V15.981H51.382V14.564ZM42.49 19.088L42.295 17.749C44.453 17.749 47.3 17.736 49.731 17.437L49.861 18.62C47.352 19.049 44.596 19.075 42.49 19.088ZM43.829 19.803H51.993V23.157H50.264V21.129H43.829V19.803ZM42.607 12.003H49.432V13.238H42.607V12.003ZM46.026 13.524C47.794 13.524 48.951 14.213 48.951 15.318C48.951 16.423 47.794 17.112 46.026 17.112C44.245 17.112 43.088 16.423 43.088 15.318C43.088 14.213 44.245 13.524 46.026 13.524ZM46.026 14.655C45.207 14.655 44.726 14.863 44.726 15.318C44.726 15.747 45.207 15.981 46.026 15.981C46.832 15.981 47.313 15.747 47.313 15.318C47.313 14.863 46.832 14.655 46.026 14.655ZM45.168 11.028H46.897V12.562H45.168V11.028ZM62.665 11.132H64.407V19.777H62.665V11.132ZM56.386 21.571H64.706V22.949H56.386V21.571ZM56.386 18.906H58.115V22.13H56.386V18.906ZM57.855 11.886C59.701 11.886 61.118 13.16 61.118 14.941C61.118 16.709 59.701 17.996 57.855 17.996C56.009 17.996 54.579 16.709 54.579 14.941C54.579 13.16 56.009 11.886 57.855 11.886ZM57.855 13.381C56.958 13.381 56.269 13.953 56.269 14.941C56.269 15.916 56.958 16.488 57.855 16.488C58.739 16.488 59.428 15.916 59.428 14.941C59.428 13.953 58.739 13.381 57.855 13.381Z" fill="#979797"/>
</svg>
