<svg width="28" height="28" viewBox="0 0 28 28" fill="none" xmlns="http://www.w3.org/2000/svg">
<path d="M6.29904 13.4954C6.0282 13.6398 5.75268 13.6626 5.47246 13.5636C5.19223 13.4647 4.98026 13.2795 4.83654 13.0079L2.12821 7.59123C1.98376 7.3204 1.96137 7.04487 2.06104 6.76465C2.16071 6.48442 2.34559 6.27245 2.61571 6.12873C2.88582 5.98501 3.16134 5.96262 3.44229 6.06156C3.72323 6.16051 3.93521 6.3454 4.07821 6.61623L6.78654 12.0329C6.93098 12.3037 6.95373 12.5793 6.85479 12.8595C6.75584 13.1397 6.57059 13.3517 6.29904 13.4954ZM10.0907 21.0787C9.81987 21.2232 9.54434 21.2459 9.26412 21.147C8.9839 21.048 8.77193 20.8628 8.6282 20.5912L6.46154 16.2579C6.31709 15.9871 6.29471 15.7115 6.39437 15.4313C6.49404 15.1511 6.67893 14.9391 6.94904 14.7954C7.21915 14.6517 7.49468 14.6293 7.77562 14.7282C8.05657 14.8272 8.26854 15.0121 8.41154 15.2829L10.5782 19.6162C10.7226 19.8871 10.7454 20.1626 10.6465 20.4428C10.5475 20.723 10.3623 20.935 10.0907 21.0787ZM12.3115 15.6621C12.0407 15.8065 11.7655 15.8293 11.486 15.7303C11.2065 15.6314 10.9942 15.4461 10.849 15.1746L7.05737 7.59123C6.91293 7.3204 6.89054 7.04487 6.9902 6.76465C7.08987 6.48442 7.27476 6.27245 7.54487 6.12873C7.81498 5.98501 8.09051 5.96262 8.37146 6.06156C8.6524 6.16051 8.86437 6.3454 9.00737 6.61623L12.799 14.1996C12.9435 14.4704 12.9662 14.7459 12.8673 15.0261C12.7683 15.3064 12.5831 15.5183 12.3115 15.6621ZM14.6407 10.2454C14.3699 10.3898 14.0943 10.4126 13.8141 10.3136C13.5339 10.2147 13.3219 10.0295 13.1782 9.7579L12.122 7.59123C11.9775 7.3204 11.9551 7.04523 12.0548 6.76573C12.1545 6.48623 12.3393 6.2739 12.6095 6.12873C12.8796 5.98356 13.1504 5.96117 13.422 6.06156C13.6935 6.16195 13.9011 6.34684 14.0449 6.61623L15.1282 8.7829C15.2726 9.05373 15.2954 9.32926 15.1965 9.60948C15.0975 9.8897 14.9123 10.1017 14.6407 10.2454ZM15.2907 21.0516C15.0199 21.1961 14.7443 21.2232 14.4641 21.1329C14.1839 21.0426 13.9719 20.8621 13.8282 20.5912L12.7449 18.4246C12.6004 18.1537 12.578 17.8782 12.6777 17.598C12.7774 17.3178 12.9623 17.1058 13.2324 16.9621C13.5025 16.8183 13.778 16.796 14.059 16.8949C14.3399 16.9938 14.5519 17.1787 14.6949 17.4496L15.7782 19.6162C15.9226 19.8871 15.9454 20.1579 15.8465 20.4287C15.7475 20.6996 15.5623 20.9072 15.2907 21.0516ZM20.3282 21.0516C20.0574 21.1961 19.7818 21.2232 19.5016 21.1329C19.2214 21.0426 19.0094 20.8621 18.8657 20.5912L15.074 13.0079C14.9296 12.7371 14.9072 12.4619 15.0069 12.1824C15.1065 11.9029 15.2914 11.6906 15.5615 11.5454C15.8316 11.4002 16.1072 11.3778 16.3881 11.4782C16.6691 11.5786 16.881 11.7635 17.024 12.0329L20.8157 19.6162C20.9601 19.8871 20.9829 20.1579 20.884 20.4287C20.785 20.6996 20.5998 20.9072 20.3282 21.0516ZM22.0074 14.5787C21.7365 14.7232 21.4614 14.7456 21.1819 14.6459C20.9024 14.5462 20.69 14.3613 20.5449 14.0912L17.2949 7.59123C17.1504 7.3204 17.128 7.04487 17.2277 6.76465C17.3274 6.48442 17.5123 6.27245 17.7824 6.12873C18.0525 5.98501 18.328 5.96262 18.609 6.06156C18.8899 6.16051 19.1019 6.3454 19.2449 6.61623L22.4949 13.1162C22.6393 13.3871 22.6621 13.6626 22.5631 13.9428C22.4642 14.223 22.2789 14.435 22.0074 14.5787ZM25.2574 21.0787C24.9865 21.2232 24.7114 21.2459 24.4319 21.147C24.1524 21.048 23.94 20.8628 23.7949 20.5912L22.1699 17.3412C22.0254 17.0704 22.003 16.7949 22.1027 16.5146C22.2024 16.2344 22.3873 16.0225 22.6574 15.8787C22.9275 15.735 23.203 15.7126 23.484 15.8116C23.7649 15.9105 23.9769 16.0954 24.1199 16.3662L25.7449 19.6162C25.8893 19.8871 25.9121 20.1626 25.8131 20.4428C25.7142 20.723 25.5289 20.935 25.2574 21.0787Z" fill="#3DCADD"/>
</svg>
