<svg width="85" height="35" viewBox="0 0 85 35" fill="none" xmlns="http://www.w3.org/2000/svg">
<rect width="85" height="35" rx="5" fill="#E8E8E8"/>
<path d="M26.788 11.132H28.53V19.777H26.788V11.132ZM20.509 21.571H28.829V22.949H20.509V21.571ZM20.509 18.906H22.238V22.13H20.509V18.906ZM21.978 11.886C23.824 11.886 25.241 13.16 25.241 14.941C25.241 16.709 23.824 17.996 21.978 17.996C20.132 17.996 18.702 16.709 18.702 14.941C18.702 13.16 20.132 11.886 21.978 11.886ZM21.978 13.381C21.081 13.381 20.392 13.953 20.392 14.941C20.392 15.916 21.081 16.488 21.978 16.488C22.862 16.488 23.551 15.916 23.551 14.941C23.551 13.953 22.862 13.381 21.978 13.381ZM30.479 16.67H41.36V18.035H30.479V16.67ZM35.9 18.698C38.5 18.698 40.073 19.517 40.073 20.934C40.073 22.351 38.5 23.157 35.9 23.157C33.3 23.157 31.714 22.351 31.714 20.934C31.714 19.517 33.3 18.698 35.9 18.698ZM35.9 20.037C34.288 20.037 33.469 20.31 33.469 20.934C33.469 21.545 34.288 21.831 35.9 21.831C37.512 21.831 38.331 21.545 38.331 20.934C38.331 20.31 37.512 20.037 35.9 20.037ZM34.73 12.354H36.264V12.653C36.264 14.447 34.639 15.942 31.532 16.215L30.934 14.876C33.573 14.642 34.73 13.589 34.73 12.653V12.354ZM35.575 12.354H37.109V12.653C37.109 13.589 38.253 14.642 40.905 14.876L40.307 16.215C37.213 15.942 35.575 14.46 35.575 12.653V12.354ZM31.467 11.678H40.385V13.043H31.467V11.678ZM44.843 17.229H46.559V20.609H44.843V17.229ZM49.211 17.229H50.94V20.609H49.211V17.229ZM42.451 20.362H53.345V21.766H42.451V20.362ZM47.885 11.704C50.472 11.704 52.383 12.978 52.383 14.941C52.383 16.904 50.472 18.165 47.885 18.165C45.285 18.165 43.387 16.904 43.387 14.941C43.387 12.978 45.285 11.704 47.885 11.704ZM47.885 13.056C46.208 13.056 45.09 13.745 45.09 14.941C45.09 16.124 46.208 16.826 47.885 16.826C49.562 16.826 50.68 16.124 50.68 14.941C50.68 13.745 49.562 13.056 47.885 13.056ZM57.101 13.225H58.492V13.667C58.492 15.76 57.426 17.645 55.125 18.308L54.319 16.956C56.256 16.41 57.101 15.032 57.101 13.667V13.225ZM57.426 13.225H58.83V13.667C58.83 14.902 59.688 16.163 61.625 16.67L60.845 18.009C58.531 17.398 57.426 15.643 57.426 13.667V13.225ZM54.735 12.367H61.196V13.719H54.735V12.367ZM57.101 11.08H58.83V12.9H57.101V11.08ZM60.858 14.33H63.159V15.721H60.858V14.33ZM62.743 11.119H64.472V18.386H62.743V11.119ZM60.39 18.594C62.938 18.594 64.511 19.426 64.511 20.869C64.511 22.312 62.938 23.157 60.39 23.157C57.842 23.157 56.269 22.312 56.269 20.869C56.269 19.426 57.842 18.594 60.39 18.594ZM60.39 19.907C58.817 19.907 57.998 20.219 57.998 20.869C57.998 21.519 58.817 21.844 60.39 21.844C61.976 21.844 62.795 21.519 62.795 20.869C62.795 20.219 61.976 19.907 60.39 19.907Z" fill="#979797"/>
</svg>
