<svg width="24" height="24" viewBox="0 0 24 24" fill="none" xmlns="http://www.w3.org/2000/svg">
<path d="M11.2729 20.313C11.1827 20.4085 11.1122 20.5208 11.0653 20.6435C11.0185 20.7662 10.9963 20.897 11.0001 21.0283C11.0038 21.1596 11.0333 21.2889 11.087 21.4088C11.1407 21.5286 11.2174 21.6368 11.3129 21.727C11.4084 21.8172 11.5207 21.8877 11.6434 21.9346C11.7661 21.9814 11.8969 22.0036 12.0282 21.9998C12.1595 21.9961 12.2888 21.9666 12.4087 21.9129C12.5285 21.8592 12.6367 21.7825 12.7269 21.687L21.2269 12.687C21.4024 12.5013 21.5002 12.2555 21.5002 12C21.5002 11.7445 21.4024 11.4987 21.2269 11.313L12.7269 2.31199C12.6373 2.21443 12.5292 2.13565 12.4088 2.08023C12.2885 2.0248 12.1584 1.99384 12.026 1.98913C11.8936 1.98443 11.7616 2.00608 11.6376 2.05283C11.5137 2.09957 11.4002 2.17048 11.3039 2.26144C11.2076 2.35239 11.1303 2.46158 11.0765 2.58265C11.0228 2.70373 10.9936 2.83428 10.9907 2.96673C10.9878 3.09918 11.0113 3.23088 11.0597 3.35418C11.1082 3.47748 11.1806 3.58993 11.2729 3.68499L19.1249 12L11.2729 20.313Z" fill="#578A6A"/>
</svg>
