<svg width="23" height="23" viewBox="0 0 23 23" fill="none" xmlns="http://www.w3.org/2000/svg">
<g clip-path="url(#clip0_326_357)">
<path fill-rule="evenodd" clip-rule="evenodd" d="M3.83337 4.79163C3.83337 4.02913 4.13628 3.29786 4.67544 2.75869C5.21461 2.21953 5.94588 1.91663 6.70837 1.91663H16.2917C17.0542 1.91663 17.7855 2.21953 18.3246 2.75869C18.8638 3.29786 19.1667 4.02913 19.1667 4.79163V20.1518C19.1667 21.321 17.8442 22.0014 16.8935 21.3219L11.5 17.4694L6.10654 21.3219C5.15492 22.0023 3.83337 21.3219 3.83337 20.1528V4.79163ZM6.70837 3.83329C6.45421 3.83329 6.21045 3.93426 6.03073 4.11398C5.85101 4.2937 5.75004 4.53746 5.75004 4.79163V19.2213L10.6644 15.7109C10.9082 15.5367 11.2004 15.443 11.5 15.443C11.7997 15.443 12.0919 15.5367 12.3357 15.7109L17.25 19.2213V4.79163C17.25 4.53746 17.1491 4.2937 16.9694 4.11398C16.7896 3.93426 16.5459 3.83329 16.2917 3.83329H6.70837Z" fill="#4ECB71"/>
</g>
<defs>
<clipPath id="clip0_326_357">
<rect width="23" height="23" fill="white"/>
</clipPath>
</defs>
</svg>
