<svg width="65" height="65" viewBox="0 0 65 65" fill="none" xmlns="http://www.w3.org/2000/svg">
<path d="M32.4993 21.667C26.6277 21.667 21.666 26.6287 21.666 32.5003C21.666 38.372 26.6277 43.3337 32.4993 43.3337C38.371 43.3337 43.3327 38.372 43.3327 32.5003C43.3327 26.6287 38.371 21.667 32.4993 21.667ZM32.4993 37.917C29.615 37.917 27.0827 35.3847 27.0827 32.5003C27.0827 29.616 29.615 27.0837 32.4993 27.0837C35.3837 27.0837 37.916 29.616 37.916 32.5003C37.916 35.3847 35.3837 37.917 32.4993 37.917Z" fill="#B5B5B5"/>
<path d="M54.166 13.542H47.1623L39.8308 6.21054C39.5797 5.95855 39.2813 5.7587 38.9527 5.62252C38.6241 5.48633 38.2717 5.41648 37.916 5.417H27.0827C26.727 5.41648 26.3746 5.48633 26.046 5.62252C25.7174 5.7587 25.419 5.95855 25.1679 6.21054L17.8364 13.542H10.8327C7.84539 13.542 5.41602 15.9714 5.41602 18.9587V48.7503C5.41602 51.7376 7.84539 54.167 10.8327 54.167H54.166C57.1533 54.167 59.5827 51.7376 59.5827 48.7503V18.9587C59.5827 15.9714 57.1533 13.542 54.166 13.542ZM10.8327 48.7503V18.9587H18.9577C19.6781 18.9587 20.366 18.6743 20.8725 18.1651L28.2039 10.8337H36.7948L44.1262 18.1651C44.3773 18.4171 44.6757 18.617 45.0044 18.7531C45.333 18.8893 45.6853 18.9592 46.041 18.9587H54.166L54.1714 48.7503H10.8327Z" fill="#B5B5B5"/>
</svg>
