<svg width="21" height="18" viewBox="0 0 21 18" fill="none" xmlns="http://www.w3.org/2000/svg">
<path d="M13.0727 15.5506L13.0716 15.5515C12.5179 15.9871 12.0367 16.3584 11.577 16.626C11.117 16.8937 10.7723 17 10.5 17C10.2279 17 9.88336 16.8936 9.42302 16.6257C8.96291 16.3579 8.4817 15.9868 7.92745 15.5518C7.6172 15.3082 7.30275 15.0667 6.98745 14.8246C5.67262 13.8148 4.34317 12.7938 3.24293 11.5602C1.91315 10.0692 1 8.34767 1 6.1188C1 3.95283 2.22869 2.14511 3.89236 1.38794C5.49406 0.658974 7.6746 0.832952 9.78084 3.01288L10.4999 3.75711L11.2191 3.01296C13.3253 0.833555 15.5058 0.659727 17.1076 1.38883C18.7713 2.14613 20 3.95389 20 6.11985C20 8.34823 19.0871 10.0698 17.7575 11.5606C16.6554 12.7962 15.3229 13.8187 14.0056 14.8296C13.6927 15.0697 13.3806 15.3092 13.0727 15.5506Z" stroke="#23C961" stroke-width="2"/>
</svg>
