<svg width="40" height="40" viewBox="0 0 40 40" fill="none" xmlns="http://www.w3.org/2000/svg">
<circle cx="20" cy="20" r="19.5" fill="white" stroke="#00E857"/>
<path d="M20 25.5C21.25 25.5 22.3127 25.0627 23.188 24.188C24.0633 23.3133 24.5007 22.2507 24.5 21C24.4993 19.7493 24.062 18.687 23.188 17.813C22.314 16.939 21.2513 16.5013 20 16.5C18.7487 16.4987 17.6863 16.9363 16.813 17.813C15.9397 18.6897 15.502 19.752 15.5 21C15.498 22.248 15.9357 23.3107 16.813 24.188C17.6903 25.0653 18.7527 25.5027 20 25.5ZM20 23.5C19.3 23.5 18.7083 23.2583 18.225 22.775C17.7417 22.2917 17.5 21.7 17.5 21C17.5 20.3 17.7417 19.7083 18.225 19.225C18.7083 18.7417 19.3 18.5 20 18.5C20.7 18.5 21.2917 18.7417 21.775 19.225C22.2583 19.7083 22.5 20.3 22.5 21C22.5 21.7 22.2583 22.2917 21.775 22.775C21.2917 23.2583 20.7 23.5 20 23.5ZM12 29C11.45 29 10.9793 28.8043 10.588 28.413C10.1967 28.0217 10.0007 27.5507 10 27V15C10 14.45 10.196 13.9793 10.588 13.588C10.98 13.1967 11.4507 13.0007 12 13H15.15L17 11H23L24.85 13H28C28.55 13 29.021 13.196 29.413 13.588C29.805 13.98 30.0007 14.4507 30 15V27C30 27.55 29.8043 28.021 29.413 28.413C29.0217 28.805 28.5507 29.0007 28 29H12Z" fill="black"/>
</svg>
