<svg width="27" height="27" viewBox="0 0 27 27" fill="none" xmlns="http://www.w3.org/2000/svg">
<path d="M6.75 21.375C6.43125 21.375 6.16425 21.267 5.949 21.051C5.73375 20.835 5.62575 20.568 5.625 20.25C5.62425 19.932 5.73225 19.665 5.949 19.449C6.16575 19.233 6.43275 19.125 6.75 19.125C7.06725 19.125 7.33462 19.233 7.55212 19.449C7.76962 19.665 7.87725 19.932 7.875 20.25C7.87275 20.568 7.76475 20.8354 7.551 21.0521C7.33725 21.2689 7.07025 21.3765 6.75 21.375ZM20.25 21.375C19.9312 21.375 19.6642 21.267 19.449 21.051C19.2337 20.835 19.1257 20.568 19.125 20.25C19.1243 19.932 19.2323 19.665 19.449 19.449C19.6658 19.233 19.9328 19.125 20.25 19.125C20.5672 19.125 20.8346 19.233 21.0521 19.449C21.2696 19.665 21.3773 19.932 21.375 20.25C21.3727 20.568 21.2647 20.8354 21.051 21.0521C20.8372 21.2689 20.5702 21.3765 20.25 21.375ZM10.125 25.875C9.80625 25.875 9.53925 25.767 9.324 25.551C9.10875 25.335 9.00075 25.068 9 24.75C8.99925 24.432 9.10725 24.165 9.324 23.949C9.54075 23.733 9.80775 23.625 10.125 23.625C10.4423 23.625 10.7096 23.733 10.9271 23.949C11.1446 24.165 11.2522 24.432 11.25 24.75C11.2478 25.068 11.1397 25.3354 10.926 25.5521C10.7122 25.7689 10.4452 25.8765 10.125 25.875ZM13.5 21.375C13.1812 21.375 12.9143 21.267 12.699 21.051C12.4838 20.835 12.3757 20.568 12.375 20.25C12.3743 19.932 12.4823 19.665 12.699 19.449C12.9158 19.233 13.1827 19.125 13.5 19.125C13.8173 19.125 14.0846 19.233 14.3021 19.449C14.5196 19.665 14.6272 19.932 14.625 20.25C14.6228 20.568 14.5147 20.8354 14.301 21.0521C14.0872 21.2689 13.8202 21.3765 13.5 21.375ZM16.875 25.875C16.5562 25.875 16.2893 25.767 16.074 25.551C15.8588 25.335 15.7507 25.068 15.75 24.75C15.7493 24.432 15.8573 24.165 16.074 23.949C16.2908 23.733 16.5577 23.625 16.875 23.625C17.1923 23.625 17.4596 23.733 17.6771 23.949C17.8946 24.165 18.0022 24.432 18 24.75C17.9978 25.068 17.8897 25.3354 17.676 25.5521C17.4622 25.7689 17.1952 25.8765 16.875 25.875ZM8.4375 18C6.73125 18 5.27362 17.3955 4.06462 16.1865C2.85562 14.9775 2.25075 13.5195 2.25 11.8125C2.25 10.2563 2.76562 8.89688 3.79688 7.73438C4.82812 6.57188 6.10313 5.8875 7.62188 5.68125C8.22188 4.6125 9.04238 3.77325 10.0834 3.1635C11.1244 2.55375 12.2633 2.24925 13.5 2.25C15.1875 2.25 16.6549 2.78925 17.9021 3.86775C19.1494 4.94625 19.9039 6.29138 20.1656 7.90313C21.4594 8.01563 22.5469 8.55 23.4281 9.50625C24.3094 10.4625 24.75 11.6063 24.75 12.9375C24.75 14.3438 24.258 15.5393 23.274 16.524C22.29 17.5088 21.0945 18.0008 19.6875 18H8.4375Z" fill="#ABCCFF"/>
</svg>
