<svg width="23" height="23" viewBox="0 0 23 23" fill="none" xmlns="http://www.w3.org/2000/svg">
<path fill-rule="evenodd" clip-rule="evenodd" d="M3.75 4.6875C3.75 3.94158 4.04632 3.22621 4.57376 2.69876C5.10121 2.17132 5.81658 1.875 6.5625 1.875H15.9375C16.6834 1.875 17.3988 2.17132 17.9262 2.69876C18.4537 3.22621 18.75 3.94158 18.75 4.6875V19.7137C18.75 20.8575 17.4563 21.5231 16.5262 20.8584L11.25 17.0897L5.97375 20.8584C5.04281 21.5241 3.75 20.8584 3.75 19.7147V4.6875ZM6.5625 3.75C6.31386 3.75 6.0754 3.84877 5.89959 4.02459C5.72377 4.2004 5.625 4.43886 5.625 4.6875V18.8034L10.4325 15.3694C10.671 15.199 10.9568 15.1073 11.25 15.1073C11.5432 15.1073 11.829 15.199 12.0675 15.3694L16.875 18.8034V4.6875C16.875 4.43886 16.7762 4.2004 16.6004 4.02459C16.4246 3.84877 16.1861 3.75 15.9375 3.75H6.5625Z" fill="#4ECB71"/>
</svg>
