<svg width="85" height="35" viewBox="0 0 85 35" fill="none" xmlns="http://www.w3.org/2000/svg">
<rect width="85" height="35" rx="5" fill="#C6F1D6"/>
<path d="M23.096 17.164H24.825V19.283H23.096V17.164ZM18.52 16.592H29.401V17.957H18.52V16.592ZM23.941 18.815C26.541 18.815 28.114 19.595 28.114 20.986C28.114 22.377 26.541 23.157 23.941 23.157C21.328 23.157 19.755 22.377 19.755 20.986C19.755 19.595 21.328 18.815 23.941 18.815ZM23.941 20.115C22.329 20.115 21.51 20.388 21.51 20.986C21.51 21.571 22.329 21.857 23.941 21.857C25.553 21.857 26.372 21.571 26.372 20.986C26.372 20.388 25.553 20.115 23.941 20.115ZM22.771 12.25H24.305V12.549C24.305 14.356 22.68 15.838 19.573 16.124L18.975 14.772C21.614 14.551 22.771 13.485 22.771 12.549V12.25ZM23.616 12.25H25.15V12.549C25.15 13.498 26.294 14.551 28.946 14.772L28.348 16.124C25.254 15.838 23.616 14.369 23.616 12.549V12.25ZM19.508 11.613H28.426V12.978H19.508V11.613ZM30.479 17.06H41.36V18.451H30.479V17.06ZM35.042 15.526H36.771V17.359H35.042V15.526ZM31.688 19.27H40.047V23.157H38.318V20.635H31.688V19.27ZM31.87 11.418H33.573V12.484H38.266V11.418H39.982V16.072H31.87V11.418ZM33.573 13.771V14.72H38.266V13.771H33.573ZM45.168 16.618H46.897V18.347H45.168V16.618ZM50.264 11.132H51.993V19.322H50.264V11.132ZM51.382 14.564H53.501V15.981H51.382V14.564ZM42.49 19.088L42.295 17.749C44.453 17.749 47.3 17.736 49.731 17.437L49.861 18.62C47.352 19.049 44.596 19.075 42.49 19.088ZM43.829 19.803H51.993V23.157H50.264V21.129H43.829V19.803ZM42.607 12.003H49.432V13.238H42.607V12.003ZM46.026 13.524C47.794 13.524 48.951 14.213 48.951 15.318C48.951 16.423 47.794 17.112 46.026 17.112C44.245 17.112 43.088 16.423 43.088 15.318C43.088 14.213 44.245 13.524 46.026 13.524ZM46.026 14.655C45.207 14.655 44.726 14.863 44.726 15.318C44.726 15.747 45.207 15.981 46.026 15.981C46.832 15.981 47.313 15.747 47.313 15.318C47.313 14.863 46.832 14.655 46.026 14.655ZM45.168 11.028H46.897V12.562H45.168V11.028ZM62.665 11.132H64.407V19.777H62.665V11.132ZM56.386 21.571H64.706V22.949H56.386V21.571ZM56.386 18.906H58.115V22.13H56.386V18.906ZM57.855 11.886C59.701 11.886 61.118 13.16 61.118 14.941C61.118 16.709 59.701 17.996 57.855 17.996C56.009 17.996 54.579 16.709 54.579 14.941C54.579 13.16 56.009 11.886 57.855 11.886ZM57.855 13.381C56.958 13.381 56.269 13.953 56.269 14.941C56.269 15.916 56.958 16.488 57.855 16.488C58.739 16.488 59.428 15.916 59.428 14.941C59.428 13.953 58.739 13.381 57.855 13.381Z" fill="#23C961"/>
</svg>
