<svg width="22" height="22" viewBox="0 0 22 22" fill="none" xmlns="http://www.w3.org/2000/svg">
<path d="M13.145 21.8696C12.87 22.0161 12.5906 22.0392 12.3068 21.9388C12.023 21.8384 11.8074 21.6505 11.66 21.375L10.01 18.0781C9.86333 17.8034 9.8406 17.5242 9.9418 17.2407C10.043 16.9571 10.2307 16.7418 10.505 16.5945C10.7793 16.4472 11.059 16.4245 11.3443 16.5264C11.6296 16.6282 11.8448 16.8157 11.99 17.089L13.64 20.3859C13.7867 20.6607 13.8098 20.9402 13.7093 21.2245C13.6088 21.5087 13.4207 21.7238 13.145 21.8696ZM19.745 21.8696C19.47 22.0161 19.1906 22.0392 18.9068 21.9388C18.623 21.8384 18.4074 21.6505 18.26 21.375L16.61 18.0781C16.4633 17.8034 16.4406 17.5242 16.5418 17.2407C16.643 16.9571 16.8307 16.7418 17.105 16.5945C17.3793 16.4472 17.659 16.4245 17.9443 16.5264C18.2296 16.6282 18.4448 16.8157 18.59 17.089L20.24 20.3859C20.3867 20.6607 20.4098 20.9402 20.3093 21.2245C20.2088 21.5087 20.0207 21.7238 19.745 21.8696ZM6.545 21.8696C6.27 22.0161 5.9906 22.0392 5.7068 21.9388C5.423 21.8384 5.2074 21.6505 5.06 21.375L3.41 18.0781C3.26333 17.8034 3.2406 17.5242 3.3418 17.2407C3.443 16.9571 3.63073 16.7418 3.905 16.5945C4.17927 16.4472 4.45903 16.4245 4.7443 16.5264C5.02957 16.6282 5.2448 16.8157 5.39 17.089L7.04 20.3859C7.18667 20.6607 7.20977 20.9402 7.1093 21.2245C7.00883 21.5087 6.82073 21.7238 6.545 21.8696ZM6.05 15.3856C4.38167 15.3856 2.95643 14.7951 1.7743 13.6141C0.592167 12.433 0.000733333 11.0088 0 9.34127C0 7.82102 0.504167 6.4931 1.5125 5.35749C2.52083 4.22189 3.7675 3.55335 5.2525 3.35187C5.83917 2.30784 6.64143 1.48801 7.6593 0.892367C8.67717 0.296724 9.79073 -0.000731298 11 1.35009e-06C12.65 1.35009e-06 14.0848 0.526775 15.3043 1.58032C16.5238 2.63387 17.2616 3.94788 17.5175 5.52234C18.7825 5.63224 19.8458 6.15425 20.7075 7.08838C21.5692 8.0225 22 9.13979 22 10.4402C22 11.814 21.5189 12.9818 20.5568 13.9438C19.5947 14.9057 18.4257 15.3864 17.05 15.3856H6.05Z" fill="#BBCCC1"/>
</svg>
