<svg width="28" height="28" viewBox="0 0 28 28" fill="none" xmlns="http://www.w3.org/2000/svg">
<path d="M14.0001 8.16699C17.2201 8.16699 19.8334 10.7803 19.8334 14.0003C19.8334 17.2203 17.2201 19.8337 14.0001 19.8337C10.7801 19.8337 8.16675 17.2203 8.16675 14.0003C8.16675 10.7803 10.7801 8.16699 14.0001 8.16699Z" fill="#FFB800" stroke="#FFB800" stroke-width="2" stroke-linecap="round"/>
<path d="M14 24.5002V25.6668V24.5002ZM24.5 14.0002H25.6667H24.5ZM14 3.50016V2.3335V3.50016ZM3.50004 14.0002H2.33337H3.50004Z" fill="#FFB800"/>
<path d="M14 24.5002V25.6668M24.5 14.0002H25.6667M14 3.50016V2.3335M3.50004 14.0002H2.33337" stroke="#FFB800" stroke-width="2" stroke-linecap="round"/>
<path d="M21.5834 21.5835L22.1667 22.1668L21.5834 21.5835ZM21.5834 6.41683L22.1667 5.8335L21.5834 6.41683ZM6.41671 6.41683L5.83337 5.8335L6.41671 6.41683ZM6.41671 21.5835L5.83337 22.1668L6.41671 21.5835Z" fill="#FFB800"/>
<path d="M21.5834 21.5835L22.1667 22.1668M21.5834 6.41683L22.1667 5.8335M6.41671 6.41683L5.83337 5.8335M6.41671 21.5835L5.83337 22.1668" stroke="#FFB800" stroke-width="2" stroke-linecap="round"/>
</svg>
